<svg width="241" height="59" viewBox="0 0 241 59" fill="none" xmlns="http://www.w3.org/2000/svg">
<path d="M1 6.90909V4.86124C1 2.6521 2.79086 0.861237 5 0.861237H42.933C45.1422 0.861237 46.933 2.6521 46.933 4.86124V9.74775C46.933 10.495 46.6542 11.2153 46.1511 11.7677L35.5377 23.4219C34.9692 24.0461 34.164 24.4019 33.3197 24.4019H26.6453C26.1472 24.4019 25.669 24.2065 25.3136 23.8577C25.1011 23.6492 24.9406 23.3939 24.8449 23.1121L24.816 23.0269C24.5609 22.276 24.7144 21.4464 25.2215 20.8365L30.7492 14.1877C31.8325 12.8846 30.9059 10.9091 29.2113 10.9091H5C2.79086 10.9091 1 9.11822 1 6.90909Z" fill="#F03B3C" stroke="#F03B3C"/>
<path d="M21.2324 33.8756H14.6677C13.8248 33.8756 13.0207 34.2303 12.4523 34.8528L2.03948 46.2573C1.55413 46.7889 1.27608 47.4772 1.2561 48.1968L1.08565 54.333C1.03874 56.0218 2.39501 57.4163 4.08449 57.4163H43.933C45.5899 57.4163 46.933 56.0731 46.933 54.4163V50.0813C46.933 48.4245 45.5899 47.0813 43.933 47.0813H18.7356C17.0445 47.0813 16.1167 45.113 17.1929 43.8086L22.7433 37.0808C23.4225 36.2574 23.3175 35.0418 22.5071 34.3471C22.1521 34.0429 21.6999 33.8756 21.2324 33.8756Z" fill="#F03B3C" stroke="#F03B3C"/>
<path d="M103.646 47.0813H66.0096C64.3527 47.0813 63.0096 48.4245 63.0096 50.0813V54.9904C63.0096 56.6473 64.3527 57.9904 66.0096 57.9904H103.646C105.303 57.9904 106.646 56.6473 106.646 54.9904V50.0813C106.646 48.4245 105.303 47.0813 103.646 47.0813Z" fill="#F03B3C" stroke="#F03B3C"/>
<path d="M103.646 0.574158H66.0096C64.3527 0.574158 63.0096 1.9173 63.0096 3.57416V8.48325C63.0096 10.1401 64.3527 11.4832 66.0096 11.4832H103.646C105.303 11.4832 106.646 10.1401 106.646 8.48325V3.57416C106.646 1.9173 105.303 0.574158 103.646 0.574158Z" fill="#F03B3C" stroke="#F03B3C"/>
<path d="M99.9139 23.8278H66.2966C64.6398 23.8278 63.2966 25.1709 63.2966 26.8278V31.7368C63.2966 33.3937 64.6398 34.7368 66.2966 34.7368H99.9139C101.571 34.7368 102.914 33.3937 102.914 31.7368V26.8278C102.914 25.1709 101.571 23.8278 99.9139 23.8278Z" fill="#F03B3C" stroke="#F03B3C"/>
<path d="M170.249 0.574158H164.766C163.109 0.574158 161.766 1.9173 161.766 3.57416V36.5691C161.766 37.535 160.532 37.9397 159.96 37.1615L133.957 1.79699C133.391 1.02817 132.494 0.574158 131.54 0.574158H126.181C125.111 0.574158 124.126 1.15872 123.614 2.09824C123.07 3.09508 123.152 4.31656 123.825 5.2313L161.728 56.7678C162.293 57.5365 163.19 57.9904 164.144 57.9904H170.249C171.906 57.9904 173.249 56.6473 173.249 54.9904V3.57416C173.249 1.9173 171.906 0.574158 170.249 0.574158Z" fill="#F03B3C" stroke="#F03B3C"/>
<path d="M130.632 57.9904H125.722C124.066 57.9904 122.722 56.6473 122.722 54.9904V41.4689C122.722 39.812 124.066 38.4689 125.722 38.4689H130.632C132.288 38.4689 133.632 39.812 133.632 41.4689V54.9904C133.632 56.6473 132.288 57.9904 130.632 57.9904Z" fill="#F03B3C" stroke="#F03B3C"/>
<path d="M192.287 47.0434L211.718 46.7943V57.9904H192.325C190.668 57.9904 189.325 56.6473 189.325 54.9904V50.0431C189.325 48.4013 190.645 47.0644 192.287 47.0434Z" fill="#F03B3C"/>
<path d="M191.713 0.249107L211.144 0V11.1962H191.751C190.094 11.1962 188.751 9.85302 188.751 8.19616V3.24886C188.751 1.60701 190.071 0.270154 191.713 0.249107Z" fill="#F03B3C"/>
<path d="M211.144 3.8147e-06C215.064 3.8147e-06 218.947 0.749989 222.569 2.20713C226.191 3.66428 229.483 5.80005 232.255 8.4925C235.028 11.185 237.227 14.3814 238.727 17.8992C240.228 21.4171 241 25.1875 241 28.9952C241 32.8029 240.228 36.5733 238.727 40.0912C237.227 43.6091 235.028 46.8055 232.255 49.4979C229.483 52.1904 226.191 54.3262 222.569 55.7833C218.947 57.2405 215.064 57.9904 211.144 57.9904V46.7935C213.55 46.7935 215.933 46.3332 218.157 45.4387C220.38 44.5443 222.401 43.2332 224.103 41.5805C225.804 39.9278 227.154 37.9657 228.075 35.8063C228.996 33.6469 229.471 31.3325 229.471 28.9952C229.471 26.6579 228.996 24.3435 228.075 22.1841C227.154 20.0247 225.804 18.0626 224.103 16.4099C222.401 14.7572 220.38 13.4462 218.157 12.5517C215.933 11.6573 213.55 11.1969 211.144 11.1969V3.8147e-06Z" fill="#F03B3C"/>
</svg>
